<svg width="44" height="44" viewBox="0 0 44 44" fill="none" xmlns="http://www.w3.org/2000/svg">
<path d="M28.875 22C28.875 23.8234 28.1507 25.572 26.8614 26.8614C25.572 28.1507 23.8234 28.875 22 28.875C20.1766 28.875 18.428 28.1507 17.1386 26.8614C15.8493 25.572 15.125 23.8234 15.125 22C15.1273 21.4029 14.6813 20.8542 14.0842 20.8542H13.9177C13.3188 20.8542 12.8333 21.3397 12.8333 21.9386V30.014C12.8333 30.651 13.349 31.1667 13.986 31.1667H30.0163C30.3216 31.1661 30.6142 31.0443 30.8299 30.8282C31.0455 30.6121 31.1667 30.3193 31.1667 30.014V21.9386C31.1667 21.3397 30.6812 20.8542 30.0823 20.8542H29.9158C29.3187 20.8542 28.8727 21.4029 28.875 22ZM22 26.5833C22.602 26.5832 23.1982 26.4645 23.7543 26.2339C24.3105 26.0034 24.8158 25.6656 25.2414 25.2398C25.667 24.8139 26.0045 24.3085 26.2348 23.7522C26.4651 23.1959 26.5835 22.5998 26.5833 21.9977C26.5832 21.3957 26.4645 20.7995 26.2339 20.2434C26.0034 19.6872 25.6656 19.1819 25.2398 18.7563C24.8139 18.3307 24.3085 17.9932 23.7522 17.7629C23.1959 17.5327 22.5998 17.4142 21.9977 17.4144C20.7818 17.4147 19.6159 17.898 18.7563 18.7579C17.8968 19.6179 17.4141 20.7841 17.4144 22C17.4147 23.2159 17.898 24.3818 18.7579 25.2414C19.6179 26.1009 20.7841 26.5836 22 26.5833ZM27.5 17.1875H30.2477C30.3382 17.1878 30.4278 17.1702 30.5115 17.1358C30.5952 17.1014 30.6712 17.0508 30.7353 16.9869C30.7994 16.9231 30.8503 16.8472 30.885 16.7636C30.9196 16.6801 30.9375 16.5905 30.9375 16.5V13.7523C30.9378 13.6616 30.9202 13.5718 30.8856 13.488C30.8511 13.4041 30.8003 13.328 30.7361 13.2639C30.672 13.1997 30.5959 13.1489 30.512 13.1144C30.4282 13.0798 30.3384 13.0622 30.2477 13.0625H27.5C27.4093 13.0622 27.3195 13.0798 27.2357 13.1144C27.1518 13.1489 27.0757 13.1997 27.0116 13.2639C26.9475 13.328 26.8967 13.4041 26.8621 13.488C26.8275 13.5718 26.8099 13.6616 26.8102 13.7523V16.5C26.8125 16.8781 27.1219 17.1875 27.5 17.1875ZM22 0C16.1652 0 10.5695 2.31785 6.44365 6.44365C2.31785 10.5695 0 16.1652 0 22C0 27.8348 2.31785 33.4305 6.44365 37.5564C10.5695 41.6822 16.1652 44 22 44C24.8891 44 27.7499 43.431 30.419 42.3253C33.0882 41.2197 35.5135 39.5992 37.5564 37.5564C39.5992 35.5135 41.2197 33.0882 42.3253 30.419C43.431 27.7499 44 24.8891 44 22C44 19.1109 43.431 16.2501 42.3253 13.581C41.2197 10.9118 39.5992 8.48654 37.5564 6.44365C35.5135 4.40076 33.0882 2.78025 30.419 1.67465C27.7499 0.569047 24.8891 0 22 0ZM33.4583 30.9123C33.4583 32.3125 32.3125 33.4583 30.9123 33.4583H13.0877C11.6875 33.4583 10.5417 32.3125 10.5417 30.9123V13.0877C10.5417 11.6875 11.6875 10.5417 13.0877 10.5417H30.9123C32.3125 10.5417 33.4583 11.6875 33.4583 13.0877V30.9123Z" fill="#FE0032"/>
</svg>
